<?xml version="1.0" encoding="UTF-8" standalone="no"?>
<!-- Created with Inkscape (http://www.inkscape.org/) -->
<svg xmlns:rdf="http://www.w3.org/1999/02/22-rdf-syntax-ns#" style="enable-background:new" xmlns="http://www.w3.org/2000/svg" xmlns:osb="http://www.openswatchbook.org/uri/2009/osb" height="960" width="1280" version="1.1" xmlns:cc="http://creativecommons.org/ns#" xmlns:xlink="http://www.w3.org/1999/xlink" viewBox="0 0 1280 960" xmlns:dc="http://purl.org/dc/elements/1.1/">
 <defs>
  <filter id="filter10966" style="color-interpolation-filters:sRGB">
   <feBlend in2="BackgroundImage" mode="multiply"/>
  </filter>
  <clipPath id="clipPath5060" clipPathUnits="userSpaceOnUse">
   <path style="enable-background:new" d="m537.4 1018-1.4142-59.397s17.669-334.38 3.25-394.15c0 0-1.6175-45.316-33.238-83.236 0 0-181.76-244.14-395.41-7.294-19.789 21.937-38.234 82.988-39.173 94.358-22.627 353.55 20.506 388.91 20.506 388.91l12.728 50.912z" stroke="#000" stroke-width="1px" fill="none"/>
  </clipPath>
  <clipPath id="clipPath5197" clipPathUnits="userSpaceOnUse">
   <path style="enable-background:new" d="m480 864s-68-13-43-48c0 0-120 79-249 6-3 35-13 32-13 32-12 31-32 27-32 27 214 208 337-17 337-17z" stroke="#000" stroke-width="1px" fill="none"/>
  </clipPath>
  <clipPath id="clipPath6831" clipPathUnits="userSpaceOnUse">
   <path style="enable-background:new" d="m183.93 1230.8-1.6547-51c123.5-96 249.22-6 249.22-6l-46.562 66z" stroke="#000" stroke-width="1px" fill="none"/>
  </clipPath>
  <linearGradient id="linearGradient6956" y2="665.62" gradientUnits="userSpaceOnUse" x2="613.19" y1="747.24" x1="598.18">
   <stop stop-color="#ececec" offset="0"/>
   <stop stop-color="#fff" stop-opacity="0" offset="1"/>
  </linearGradient>
  <linearGradient id="linearGradient6992" y2="309.19" gradientUnits="userSpaceOnUse" x2="495.68" y1="377.69" x1="518.5">
   <stop stop-color="#ececec" offset="0"/>
   <stop stop-color="#fefefe" stop-opacity="0" offset="1"/>
  </linearGradient>
 </defs>
 <metadata>
  <rdf:RDF>
   <cc:Work rdf:about="">
    <dc:format>image/svg+xml</dc:format>
    <dc:type rdf:resource="http://purl.org/dc/dcmitype/StillImage"/>
    <dc:title/>
   </cc:Work>
  </rdf:RDF>
 </metadata>
 <g fill-rule="evenodd">
  <path d="m212.81 403.59c-22.177-47-10.07-64.01-10.07-64.01 8.6774-13.686 14.061-8.0398 14.061-8.0398 11.999 28.293 23.854 61.525 23.854 61.525z" fill="#2a1a13"/>
  <path d="m221.31 342.39c-2.0954-21.306 15.733-38.816-2.0363-55.687-15.02-18.385-39.692-34.88-39.692-34.88 0.55631 16.971 2.7816 24.042 2.7816 24.042-7.7209-8.2929-21.632-11.778-21.632-11.778-4.9966 13.789 2.0025 45.765 2.0025 45.765 0.3713 35.62 7.2408 17.057 36.876 49.835" fill="#131010"/>
  <path style="enable-background:new" d="m397.1 400.9c17.934-46.293 17.848-61.889 17.848-61.889-8.6774-13.686-21.839-10.161-21.839-10.161-11.999 28.293-23.854 61.525-23.854 61.525z" fill="#2a1a13"/>
  <path style="enable-background:new" d="m388.55 339.85c7.0954-21.306-18.049-35.518-0.27986-52.39 15.02-18.385 42.07-38.33 42.07-38.33-0.55631 16.971 0.75397 26.87 0.75397 26.87 7.7209-8.2929 24.46-11.778 24.46-11.778-4.1958 18.738-5.3665 43.437-5.3665 43.437 1.75 30.67-17.903 18.719-38.538 49.496" fill="#131010"/>
  <path d="m242.24 394.42c4.2426-36.062 16.263-38.891 16.263-38.891 18.385 0 24.042 8.4853 24.042 8.4853 10.952-3.4354 28.675-5.6609 36.062 5.6569 24.042-14.142 37.477-6.364 37.477-6.364 13.435 19.092 11.314 35.355 11.314 35.355z" fill="#1d1815"/>
  <path style="enable-background:new" d="m247.13 380.53c1.7678-8.4853 3.5355-7.4246 3.5355-7.4246 57.276-7.7782 108.19 0 108.19 0 4.5962 6.7175 1.4142 9.8995 1.4142 9.8995-77.782 4.2426-113.14-2.4749-113.14-2.4749z" fill="#442323"/>
 </g>
 <g clip-path="url(#clipPath5060)">
  <rect style="enable-background:new" rx="2.8284" ry="17.062" height="718" width="554" y="360" x="32.828" fill="#c9b59c"/>
  <g fill="#452c10" fill-rule="evenodd">
   <path d="m59 500c35-83 89-17 89-17l10 24c1 39-46 61-46 61-53-34-53-68-53-68z"/>
   <path d="m55 668c37-25 62 7 62 7 8 36-42 50-42 50s-41-25-20-57z"/>
   <path d="m88 825c14-46 31 0 31 0 4 17-7 48-7 48-15 28-28 9-28 9 6-43 4-57 4-57z"/>
   <path d="m161 907c24-52 74-6 74-6 16 44-9 69-9 69l-29 14c-57-14-53-46-53-46l5-20z"/>
   <path d="m357 888c3-79 83-55 83-55 38 22 28 73 28 73l-32 34c-45 8-59 0-59 0-29-26-20-52-20-52z"/>
   <path d="m550 751c-28 25-27 59-27 59 12 27 40 10 40 10z"/>
   <path marker-end="" d="m563 885s-26 15-58 24c-19 48 9 61 9 61 14 26 35 31 35 31 23-111 14-116 14-116z"/>
   <path d="m212 812c15-7 27 0 27 0 6 35-20 57-20 57l-22-13c0-35 15-44 15-44z"/>
   <path d="m101 908c30 25 30 40 30 40 10 27-25 37-25 37s-6-32-5-77z"/>
   <path d="m91 907c-24-25-38-32.5-38-32.5-21 76.5 24 109.5 24 109.5 16 1 24-2 24-2-7-45-10-75-10-75z"/>
   <path d="m318 945s-21-29-47 4c-3 40 19 49 19 49l27 3 15-22s-8 6-14-34z"/>
   <path d="m566 653s13-58-5-114c0 0-13-16-58 23-2 45 27 102 27 102 30 22 36-11 36-11z"/>
   <path d="m529 700c15-7 25 0 25 0 4 20-12 34-12 34-19-9-17-14-17-14z"/>
   <path d="m135 860.5c15.774 9.8499 28.197-4.2586 35.818-11.659 24.62-23.91 24.18-75.84 24.18-75.84-28-37-67-5-67-5-7 45 7 92.5 7 92.5z"/>
   <path d="m109 896c13-29 40-27 40-27 19 7 13 24 13 24-26 36-40 25-40 25-13-8-13-22-13-22z"/>
   <path d="m238 873c15-74 37-69 37-69 54-8 46 48 46 48-41 55-62 48-62 48-6-18-21-27-21-27z"/>
   <path d="m297 913c20-49 37-73 37-73 17-6 19 2 19 2 13 24-12 78-12 78-5-7-22 8-22 8-16 0-22-15-22-15z"/>
   <path d="m190 1006c57-48 70-10 70-10-12 39-70 10-70 10z"/>
   <path d="m397 800c23 26 64 22 64 22 43-11 24-48 24-48-75-26-89 1-89 1-10 14 1 25 1 25z"/>
   <path d="m484 829c16 16 34 3 34 3 27 30 1 62 1 62-28 6-42-8-42-8-6-46 7-57 7-57z"/>
   <path d="m350 980c14-30 64-31 64-31 38 14 39 35 39 35-17 39-37 39-37 39s-59-4-66-43z"/>
   <path d="m485 921s-24-16-28 16c-5 55 21 88 21 88 26 5 33-11 33-11s-19-41-26-93z"/>
   <path d="m44 729c51 29 40 27 40 27 2 41-8 61-8 61-18 22-35 26-35 26-17-75 3-114 3-114z"/>
  </g>
 </g>
 <path style="enable-background:new" d="m537.75 1017.6-1.4142-59.397s17.669-334.38 3.25-394.15c0 0-1.6175-45.316-33.238-83.236 0 0-181.76-244.14-395.41-7.294-19.789 21.937-38.234 82.988-39.173 94.358-22.627 353.55 20.506 388.91 20.506 388.91l12.728 50.912z" fill="none"/>
 <g transform="translate(0,320)">
  <g fill-rule="evenodd" style="enable-background:new" fill="#61370c">
   <path style="enable-background:new" d="m496.17 1105c-49.009-317.32-11-448-11-448-28.958 123.91 11 448 11 448z" transform="translate(0,-320)"/>
   <path style="enable-background:new" d="m525.53 1084c15.991-354.32-2-530-2-530 11.042 195.91 2 530 2 530z" transform="translate(0,-320)"/>
   <path d="m106 664c-25.728-179.81 5-448 5-448-25.657 282.18-5 448-5 448z"/>
   <path style="enable-background:new" d="m178 733.19c15.991-171.32 5-448 5-448 4.0416 195.91-5 448-5 448z"/>
   <path style="enable-background:new" d="m236.66 733c-18.009-166.32-11-448-11-448 0.0416 253.91 11 448 11 448z"/>
   <path style="enable-background:new" d="m287.66 789c42.991-226.32 5-448 5-448 32.042 216.91-5 448-5 448z"/>
   <path style="enable-background:new" d="m419.17 758c-38.009-261.32-11-448-11-448-34.958 258.91 11 448 11 448z"/>
  </g>
 </g>
 <g fill-rule="evenodd" transform="translate(0,-320)">
  <path d="m405.88 732.7c111.72-100.41 168.29-60.811 168.29-60.811-11.314 79.196-76.368 104.65-76.368 104.65 5.6569 25.456-7.0711 62.225-7.0711 62.225s-66.468-2.8284-84.853-106.07z" fill="#e1e1e1"/>
  <path style="enable-background:new" d="m212.84 734.54c-111.72-100.41-168.29-60.82-168.29-60.82 26.87 93.338 76.368 104.65 76.368 104.65-5.6569 25.456 7.0711 62.225 7.0711 62.225s66.468-2.8284 84.853-106.07z" fill="#e1e1e1"/>
  <path d="m421.26 758.93c26.25-24.25 69.74-54.43 69.74-54.43l-19.25 27c15-10.5 27.25-11.75 27.25-11.75-9.75 18-17.5 22.5-17.5 22.5 9.3264-2.2512 17.017-5.4553 20.687-6.1937 2.0357-0.40959 3.1062 0.80981 3.1062 0.80981 1.85 3.28-13.79 13.38-13.79 13.38 22 1.75 21.5 12.25 21.5 12.25-25.5 18-78.25 3.75-78.25 3.75z" fill="#61370c"/>
  <path d="m180.31 746.13c-31.466-28.284-54.094-33.234-54.094-33.234 3.8891 10.96 10.607 13.789 10.607 13.789-16.971-6.7175-29.345-11.314-29.345-11.314 11.314 13.789 17.678 16.617 17.678 16.617-22.981-4.2426-27.577-1.4142-27.577-1.4142 9.8995 10.607 20.506 18.738 20.506 18.738-14.849 1.0607-18.385 10.253-18.385 10.253 22.627 7.0711 55.861 9.8995 55.861 9.8995z" fill="#61370c"/>
  <path d="m559.04 676c7.4749 15.707-5.2071 24.311-5.2071 24.311 8.37-12.07 5.21-24.31 5.21-24.31z" fill="#7c3a00"/>
  <path style="enable-background:new" d="m58.301 678.7c-6.3499 16.228 5.8321 24.71 5.8321 24.686-7.4933-10.943-5.8321-24.686-5.8321-24.686z" fill="#7c3a00"/>
 </g>
 <g fill-rule="evenodd" transform="translate(0,-320)">
  <path style="enable-background:new" d="m200.07 746.87c-95.17-71.43-150.61-72.9-150.61-72.9-7.0015 1.2411 0.98407 17.326 0.98407 17.326s-23.349-22.647 13.451-21.795c0 0 44.841-2.8284 138.18 76.368" fill="#7c3a00"/>
  <path style="enable-background:new" d="m44.659 673.66s50.578-45.359 170.33 62.391l-22.5 22.25c-62-91-147.83-84.641-147.83-84.641z" fill="#f0f0f0"/>
  <path style="enable-background:new" d="m418.19 744.42c99.415-72.838 151.24-71.711 151.24-71.711 5.3765-1.5089 1.2034 16.263 1.2034 16.263s21.224-20.335-16.263-21.92c0 0-44.841-2.8284-138.18 76.368" fill="#7c3a00"/>
  <path style="enable-background:new" d="m573.25 671.5s-56.24-45.096-170.25 62.5l22.5 22.25c62-91 147.75-84.75 147.75-84.75z" fill="#f0f0f0"/>
 </g>
 <g style="enable-background:new" clip-path="url(#clipPath6831)" transform="translate(5.3787 -357.88)">
  <rect stroke-linejoin="round" style="enable-background:new" stroke-dasharray="1.6, 4.8" rx="2.8284" ry="1.0625" height="168.29" width="466.69" stroke="#000" stroke-linecap="round" y="1094.1" x="87.681" stroke-width="1.6" fill="#917c62"/>
  <g fill="#452c10" fill-rule="evenodd">
   <path d="m323.85 1100c-38.184 47.376-9.8995 73.539-9.8995 73.539l33.941 8.4853c41.012-3.5355 41.719-33.941 41.719-33.941z"/>
   <path d="m414.36 1138.9c-42.426 41.719-38.891 57.276-38.891 57.276 13.435 15.556 33.234 12.728 33.234 12.728 31.113-32.527 5.6568-70.004 5.6568-70.004z"/>
   <path d="m382.54 1249.2s2.8284-24.749-18.385-55.154c0 0-31.113-17.678-95.459-6.3639-34.648 24.749-29.698 53.033-29.698 53.033 90.51 11.314 143.54 8.4853 143.54 8.4853z"/>
   <path d="m168.29 1162.2c50.205-14.142 65.054 15.556 65.054 15.556 0.7071 14.142-8.4853 33.234-8.4853 33.234-25.456 14.142-55.861 16.264-55.861 16.264z"/>
   <path d="m247.49 1154.5c26.87 12.021 31.113-7.7782 31.113-7.7782-7.7782-22.627-28.284-24.042-28.284-24.042-19.799 12.021-8.4853 24.749-8.4853 24.749z"/>
  </g>
 </g>
 <path stroke-linejoin="round" d="m458 869.5c24.5 2.5 36.5 12 36.5 12 28.5 42 38 92 38 92l-28 7v0.5z" fill-rule="evenodd" stroke="#e6cba4" stroke-linecap="round" stroke-dasharray="1.6, 4.79999999999999980" stroke-width="1.6" fill="#452c10"/>
 <path stroke-linejoin="round" style="enable-background:new" d="m212.88 871-25.53-49c123.5-96 249.22-6 249.22-6l-57.169 59.99z" stroke="#e6cba4" stroke-linecap="round" stroke-dasharray="1.6, 4.79999999999999980" stroke-width="1.6" fill="none"/>
 <path d="m347.25 849.85s2.582-4.5962-1.291-37.83l-68.424 1.4142c-3.8731 22.627-1.291 37.83-1.291 37.83z" fill-rule="evenodd" fill="#dbc4b4"/>
 <g fill-rule="evenodd">
  <path style="enable-background:new" d="m110.73 1007.3c0.85461-103.5 59.166-138.53 59.166-138.53 139.87-68.853 287.44 5.2322 287.44 5.2322 54.417-2.6447 64.916 131.54 64.916 131.54s-208.11 31.456-411.53 1.7573z" fill="#f0f0f0"/>
  <path style="enable-background:new" d="m168.42 867.32c159.28-67.033 288.15 5.5858 288.15 5.5858-43.067-1.3937-288.15-5.5858-288.15-5.5858z" fill="#c9c9c9"/>
  <path d="m150.44 886.38c176.5 92.5 320.61-9.9748 320.61-9.9748s4.2276 1.9604 6.5478 3.7503c-178.44 212.49-329.17 8.6812-329.17 8.6812z" fill="#e1e1e1"/>
 </g>
 <path d="m182.57 946.7c-5.5764 9.0081-6.0054 22.735-6.0054 22.735" stroke="#000" stroke-width="1px" fill="none"/>
 <path d="m446.54 946.7c8.5791 14.584 7.2922 22.735 7.2922 22.735" stroke="#000" stroke-width="1px" fill="none"/>
 <g fill-rule="evenodd" transform="translate(0 -92.362)">
  <path style="enable-background:new" d="m151.65 720.17c21.423 62.832 19.742 106.96 19.742 106.96-4.9987 43.912 41.046 62.577 41.046 62.577 21.203 7.6772 74.252 23.527 94.163 23.424 34.408-0.17757 96.416-23.424 96.416-23.424s49.254-15.673 46.398-62.577c0 0-1.681-44.132 19.742-106.96 0 0-10.075-92.538-54.4-131.2-52.366-45.669-139.78-53.928-206.05 0-36.088 29.364-53.435 67.714-57.055 131.2z" fill="#f9e8da"/>
  <path d="m90.151 744.27c-14.879 66.519-13.129 70.02-13.129 70.02 28.008 43.763 46.389 62.143 46.389 62.143 11.378 7.8773 33.26 10.503 33.26 10.503 15.755-21.006 16.63-36.761 16.63-36.761 9.6278 0 20.131-2.6258 20.131-2.6258-5.2515-9.6278-14.879-19.256-14.879-19.256 23.632-21.881-23.632-85.775-23.632-85.775-26.258-21.881-61.268-0.87525-64.769 1.7505z" fill="#fafafa"/>
  <path style="enable-background:new" d="m532.56 752.26c14.879 66.519 13.129 70.02 13.129 70.02-28.008 43.763-33.26 57.767-33.26 57.767-11.378 7.8773-40.262 15.755-40.262 15.755-15.755-21.006-18.38-36.761-18.38-36.761-9.6278 0-22.757 0.87525-22.757 0.87525 5.2515-9.6278 13.129-23.632 13.129-23.632-23.632-21.881 24.507-97.153 24.507-97.153 26.258-21.881 60.393 10.503 63.894 13.129z" fill="#fafafa"/>
 </g>
 <path style="enable-background:new" d="m311.79 820.54c-2.4794 2.7894-0.15377 6.8184-0.15377 6.8184 2.7894-4.0291 0.15377-6.8184 0.15377-6.8184z" fill-rule="evenodd" transform="translate(0 -92.362)" fill="#deb887"/>
 <g transform="translate(0,320)">
  <g transform="translate(-2.5254 -.55517)">
   <g transform="translate(3.5714)"></g>
  </g>
  <path style="enable-background:new" d="m276.13 339.75c11.258 26.793-3.1571 50.004-3.1571 50.004-5.0363 3.9484-10.369 5.3585-10.369 5.3585-24.589 6.4866-42.068 0.28203-42.068 0.28203-12.443-8.4608-14.322-15.315-14.322-15.315-14.22-29.895-2.9625-43.996-2.9625-43.996 32.588-13.255 65.175-3.6664 65.175-3.6664l5.6288 4.5124z" fill-rule="evenodd" fill="#f6f6f6"/>
  <path style="enable-background:new" d="m344.68 339.75c-11.258 26.793 3.1571 50.004 3.1571 50.004 5.0363 3.9484 10.369 5.3585 10.369 5.3585 24.589 6.4866 42.068 0.28203 42.068 0.28203 12.443-8.4608 14.322-15.315 14.322-15.315 14.22-29.895 2.9625-43.996 2.9625-43.996-32.588-13.255-65.175-3.6664-65.175-3.6664l-5.6288 4.5124z" fill-rule="evenodd" fill="#f6f6f6"/>
 </g>
 <g fill-rule="evenodd" fill="#ebebeb">
  <path style="enable-background:new" d="m264.35 646.66s12.212 5.9316 14.99 24.519c-12.377-12.782-65.69-7.3459-77.852 2.5344l5.3044-19.627z"/>
  <path style="enable-background:new" d="m356.26 646.66s-12.212 5.9316-14.99 24.519c12.377-12.782 65.69-7.3459 77.852 2.5344l-5.3044-19.627z"/>
 </g>
 <g fill-rule="evenodd" stroke="#000" stroke-width="1px">
  <g style="enable-background:new" transform="matrix(.95587 0 0 .90998 14.537 371.8)">
   <path style="enable-background:new" d="m203.42 775.36c0-4.383-14.796-22.509-0.92066-47.346 0 0 3.1342-8.3407 52.534-6.9065 0 0 15.841-0.10635 21.101 10.413l-14.079-20.206c-57.583-9.8113-67.446 14.141-67.446 14.141-14.026 34.188 8.8101 49.904 8.8101 49.904z" transform="translate(0 -412.36)"/>
   <path style="enable-background:new" d="m275.84 730.97-22.935-32.697 4.6489 22.935 11.467 2.1695z" transform="translate(0 -412.36)"/>
   <path style="enable-background:new" d="m236.47 711.91-12.242-16.116 5.5787 20.765z" transform="translate(0 -412.36)"/>
   <path style="enable-background:new" d="m215.09 715.16-15.186-12.397 10.383 16.736z" transform="translate(0 -412.36)"/>
   <path style="enable-background:new" d="m206.88 715.63c-7.7482 5.1138-16.736 6.0436-16.736 6.0436 4.339 13.637-5.1138 19.525-5.1138 19.525l7.7482 9.6078z" transform="translate(0 -412.36)"/>
   <path style="enable-background:new" d="m191.07 753.28-3.8741 0.46489 4.9588 4.029-4.4939 2.0145 6.3535 2.6344-2.9443 2.0145 4.8039 1.0848-1.0847 3.2542h2.7893z" transform="translate(0 -412.36)"/>
  </g>
  <g style="enable-background:new" transform="matrix(-.95587 0 0 .90998 606.27 371.8)">
   <path style="enable-background:new" d="m203.42 775.36c0-4.383-14.796-22.509-0.92066-47.346 0 0 3.1342-8.3407 52.534-6.9065 0 0 15.841-0.10635 21.101 10.413l-14.079-20.206c-57.583-9.8113-67.446 14.141-67.446 14.141-14.026 34.188 8.8101 49.904 8.8101 49.904z" transform="translate(0 -412.36)"/>
   <path style="enable-background:new" d="m275.84 730.97-22.935-32.697 4.6489 22.935 11.467 2.1695z" transform="translate(0 -412.36)"/>
   <path style="enable-background:new" d="m236.47 711.91-12.242-16.116 5.5787 20.765z" transform="translate(0 -412.36)"/>
   <path style="enable-background:new" d="m215.09 715.16-15.186-12.397 10.383 16.736z" transform="translate(0 -412.36)"/>
   <path style="enable-background:new" d="m206.88 715.63c-7.7482 5.1138-16.736 6.0436-16.736 6.0436 4.339 13.637-5.1138 19.525-5.1138 19.525l7.7482 9.6078z" transform="translate(0 -412.36)"/>
   <path style="enable-background:new" d="m191.07 753.28-3.8741 0.46489 4.9588 4.029-4.4939 2.0145 6.3535 2.6344-2.9443 2.0145 4.8039 1.0848-1.0847 3.2542h2.7893z" transform="translate(0 -412.36)"/>
  </g>
 </g>
 <g>
  <g transform="matrix(.87925 0 0 .83703 37.767 130.46)">
   <g fill-rule="evenodd">
    <path style="enable-background:new" d="m218.37 634.85s-15.427 41.904 2.8736 54.621c17.249 12.279 33.782-1.6248 33.782-1.6248 16.891-14.918 2.0768-54.47 2.0768-54.47-8.213-14.559-32.825-11.869-38.733 1.4744z" stroke="#000" stroke-width="1px"/>
    <path d="m219.93 642.78c8.3802-9.5697 12.212-4.7356 12.212-4.7356 2.5361 4.1406-7.0217 8.2387-7.0217 8.2387-7.6584 0.74708-5.1899-3.5031-5.1899-3.5031z" fill="#f6f6f6"/>
    <path d="m219.68 686.16c-9.0742-13.009-3.6627-25.684-3.6627-25.684 20.6-2.6298 42.844-0.10958 42.844-0.10958 4.5872 15.094-0.4841 21.634-2.5072 24.269-9.658 12.579-30.654 10.156-36.674 1.5251z" stroke="#000" stroke-width="1px" fill="#191044"/>
   </g>
   <path d="m250.43 678.39a12.711 12.711 0 0 1 -12.102 12.696 12.711 12.711 0 0 1 -13.261 -11.48 12.711 12.711 0 0 1 10.832 -13.796 12.711 12.711 0 0 1 14.299 10.159" fill="#342f70"/>
   <path style="enable-background:new" d="m240.19 665.91s0.72216-4.8913 0.50551-9.375c0 0-2.8886-1.6304-6.2828 0.2038-0.21665 6.3179 0.64995 9.1712 0.64995 9.1712 2.5998 0.40762 5.1274 0 5.1274 0z" fill-rule="evenodd" stroke="#000" stroke-width=".78288px"/>
  </g>
  <g style="enable-background:new" transform="matrix(.87925 0 0 .83703 165.14 130.83)">
   <g fill-rule="evenodd">
    <path style="enable-background:new" d="m218.37 634.85s-15.427 41.904 2.8736 54.621c17.249 12.279 33.782-1.6248 33.782-1.6248 16.891-14.918 2.0768-54.47 2.0768-54.47-8.213-14.559-32.825-11.869-38.733 1.4744z" stroke="#000" stroke-width="1px"/>
    <path d="m219.93 642.78c8.3802-9.5697 12.212-4.7356 12.212-4.7356 2.5361 4.1406-7.0217 8.2387-7.0217 8.2387-7.6584 0.74708-5.1899-3.5031-5.1899-3.5031z" fill="#f6f6f6"/>
    <path d="m219.68 686.16c-9.0742-13.009-3.6627-25.684-3.6627-25.684 20.6-2.6298 42.844-0.10958 42.844-0.10958 4.5872 15.094-0.4841 21.634-2.5072 24.269-9.658 12.579-30.654 10.156-36.674 1.5251z" stroke="#000" stroke-width="1px" fill="#191044"/>
   </g>
   <path d="m250.43 678.39a12.711 12.711 0 0 1 -12.102 12.696 12.711 12.711 0 0 1 -13.261 -11.48 12.711 12.711 0 0 1 10.832 -13.796 12.711 12.711 0 0 1 14.299 10.159" fill="#342f70"/>
   <path style="enable-background:new" d="m240.19 665.91s0.72216-4.8913 0.50551-9.375c0 0-2.8886-1.6304-6.2828 0.2038-0.21665 6.3179 0.64995 9.1712 0.64995 9.1712 2.5998 0.40762 5.1274 0 5.1274 0z" fill-rule="evenodd" stroke="#000" stroke-width=".78288px"/>
  </g>
 </g>
 <g transform="translate(0,320)">
  <path style="enable-background:new" d="m288.76 479.18c25.486-3.8476 47.729 0 47.729 0-1.9874-12.779-4.0642-15.054-4.0642-15.054-12.186-19.909-34.332-10.708-39.388 0-3.0824 6.5278-4.2762 15.054-4.2762 15.054z" fill-rule="evenodd" fill="#f4b0bf"/>
 </g>
 <g opacity="0.59" transform="translate(0,320)" filter="url(#filter10966)">
  <path opacity="1" d="m179.43 280.27s20.131-54.266 53.391-109.41c20.131 116.41 59.517 174.18 59.517 174.18 24.507-7.8773 42.012-28.008 42.012-28.008 18.38-73.522 35.01-130.41 35.01-130.41 7.4551 14.697 28.614 112.32 32.223 101.12l13.29-59.985-14.004-94.528-229.32 5.2515z" fill-rule="evenodd" fill-opacity=".96078" fill="#dcd2c3"/>
 </g>
 <g transform="translate(0,320)">
  <g>
   <g style="enable-background:new" transform="translate(.87526 -406.24)" fill="#e6cba4">
    <path d="m453.65 739.82s6.8079 25.994 11.759 51.369c0 0 6.189-4.9512 11.14-12.997 0 0-1.8567 9.2835 5.5701 14.235 0 0 11.759-7.4268 16.091-19.186 0 0 8.0457 6.8079 12.997 6.8079 0 0 8.6646-8.0457 17.948-29.707 0 0-4.3323 15.472 0 22.28 0 0 4.3323-4.3323 7.3729-18.72 30.634-118.16-68.979-215.64-68.979-215.64s-143.12-155.64-319.03-5.4266c0 0-103.9 93.132-61.876 224.57 7.0021-5.2515 2.5287-17.505 2.5287-17.505 6.7504 21.584 16.653 32.724 16.653 32.724 10.521-9.2835 8.0457-12.997 8.0457-12.997 1.2378 14.854 11.759 21.661 11.759 21.661 6.8079-2.4756 10.521-5.5701 10.521-5.5701 4.9512 9.9024 8.0457 10.521 8.0457 10.521l21.043-61.89 22.871-165.72-13.587 23.376-25.994 102.74c16.71 9.9024 37.134 12.378 37.134 12.378 15.472-85.408 24.137-101.5 24.137-101.5-3.7134 65.603 4.3323 94.073 4.3323 94.073l23.518 5.5701 9.9024-53.225c-7.4268-37.134-6.189-70.555-6.189-70.555 8.6646 83.551 46.417 144.84 53.844 164.03l33.933-12.741c19.805-82.314 21.149-137.67 21.149-137.67l5.5701 74.268 10.521 53.225c22.899 1.8567 38.372-5.5701 38.372-5.5701v-66.222l-9.9024-47.036 9.2835 45.799c9.9024 34.658 12.997 79.838 12.997 79.838 19.186 1.2378 43.323-8.6646 43.323-8.6646-4.9512-80.457-18.93-115.12-18.93-115.12l-5.3032-15.988z" fill="#e6cba4"/>
   </g>
   <g style="enable-background:new" transform="translate(-488.41 -378.14)" fill="#e6cba4">
    <path d="m571.11 621.33c-7.2377 31.399-7.9907 67.914 4.823 107.99 7.002-5.2515 2.5287-17.505 2.5287-17.505 6.7504 21.584 16.653 32.724 16.653 32.724 10.521-9.2835 8.0457-12.997 8.0457-12.997 1.2378 14.854 11.759 21.661 11.759 21.661 6.8079-2.4756 10.521-5.5701 10.521-5.5701 4.9512 9.9024 8.0457 10.521 8.0457 10.521l21.043-61.89 6.0363-43.739z" fill="url(#linearGradient6956)"/>
   </g>
   <path style="enable-background:new" d="m451.42 304.88 3.0368 28.901s6.8079 25.994 11.759 51.369c0 0 6.189-4.9512 11.14-12.997 0 0-1.8567 9.2835 5.5701 14.235 0 0 11.759-7.4268 16.091-19.186 0 0 8.0457 6.8079 12.997 6.8079 0 0 8.6646-8.0457 17.948-29.707 0 0-4.3323 15.472 0 22.28 0 0 4.3323-4.3323 7.3729-18.72 9.9155-38.245 6.1855-74.324-3.3954-105.63-6.94-21.98-12.94-33.23-12.94-33.23l-79 30.75z" fill="url(#linearGradient6992)"/>
  </g>
  <path stroke-linejoin="round" style="enable-background:new" d="m78.971 311.1c1.4675 13.059 4.2877 26.618 8.762 40.612 7.002-5.2515 2.5287-17.505 2.5287-17.505 6.7504 21.584 16.653 32.724 16.653 32.724 10.521-9.2835 8.0457-12.997 8.0457-12.997 1.2378 14.854 11.759 21.661 11.759 21.661 6.8079-2.4756 10.521-5.5701 10.521-5.5701 4.9512 9.9024 8.0457 10.521 8.0457 10.521l15.556-45.753" fill-opacity="0" stroke="#452c10" stroke-linecap="round" stroke-dasharray="1.60000002,4.80000007" stroke-width="1.6"/>
  <path stroke-linejoin="round" style="enable-background:new" d="m459.87 354.08c2.092 8.902 4.4979 19.664 6.5766 30.317 0 0 6.189-4.9512 11.14-12.997 0 0-1.8567 9.2835 5.5701 14.235 0 0 11.759-7.4268 16.091-19.186 0 0 8.0457 6.8079 12.997 6.8079 0 0 8.6646-8.0457 17.948-29.707 0 0-4.3323 15.472 0 22.28 0 0 4.3323-4.3323 7.3729-18.72 2.1622-8.3401 3.6756-16.577 4.6209-24.684" stroke="#452c10" stroke-linecap="round" stroke-dasharray="1.60000002, 4.80000007" stroke-width="1.6" fill="none"/>
 </g>
 <g fill-rule="evenodd" transform="translate(0,320)" fill="#8b4513">
  <path style="enable-background:new" d="m342.33 679.86c27.309 31.1 51.678 30.326 51.678 30.326s-21.282 1.157-51.678-30.326z" transform="translate(0 -412.36)"/>
  <path style="enable-background:new" d="m342.23 267.14c37.636 44.638 87.526 29.759 87.526 29.759s-49.908 20.988-87.526-29.759z"/>
  <path style="enable-background:new" d="m270.45 265.39c-24.745 35.373-80.524 35.01-80.524 35.01 67.839 1.1083 80.524-35.01 80.524-35.01z"/>
  <path style="enable-background:new" d="m270.34 265.83c-20.24 26.039-46.17 28.008-46.17 28.008 30.525 0.65645 46.17-28.008 46.17-28.008z"/>
 </g>
 <g fill-rule="evenodd" transform="translate(0,320)">
  <path style="enable-background:new" d="m296.59 76.212c52.393-10.004 74.147 21.129 74.147 21.129s-15.004-34.634-74.147-21.129z" fill="#7c3a00"/>
  <path style="enable-background:new" d="m258.14 91.231c38.759-13.253 71.522-4.6258 71.522-4.6258s-39.014-10.629-71.522 4.6258z" fill="#7c3a00"/>
  <path opacity="0.59" style="enable-background:new" d="m299.34 231.26c12.254-7.8773 22.757 1.7505 22.757 1.7505 0.87526 18.38-4.4509 33.26-4.4509 33.26-9.6278 9.6278-14.618 1.9424-14.618 1.9424-5.2515-16.63-3.6876-36.953-3.6876-36.953z" transform="matrix(.86737 0 0 .71671 45.96 72.441)" filter="url(#filter10966)" fill="#fff"/>
  <path d="m331.42 233.38c-3.0945 1.3925-1.0831 9.9024-1.0831 9.9024 1.0831 1.702 4.1776 0.92835 4.1776 0.92835s2.4756-10.212-3.0945-10.831z" fill="#f5eada"/>
 </g>
 <g>
  <g style="enable-background:new" clip-path="url(#clipPath5197)">
   <rect rx="2.8284" ry="1.0625" height="252" width="431" y="739" x="103" fill="#c9b59c"/>
   <g fill="#452c10" fill-rule="evenodd">
    <path d="m230 831c33 4 58 13 58 13-3 19 10 32 10 32 10 41-40 52-40 52-48-28-50-54-50-54l-1-14c2-28 23-29 23-29z"/>
    <path d="m314 833c-14 30 15 48 15 48 31-11 41-22 41-22 9-23-11-38-11-38z"/>
    <path d="m381 820c12 41 19 39 19 39 54 2 70-35 70-35-32-43-66-20-66-20z"/>
    <path d="m339 970c-19-50-7-63-7-63 45-24 84-30 84-30 51 17 61 33 61 33l-75 62z"/>
    <path d="m266 968c-4-23 9-31 9-31 34-18 43-2 43-2 10 30-1 49-1 49z"/>
    <path d="m211 942s10-52-22-66c-33 5-50 31-50 31 32 30 72 35 72 35z"/>
    <path d="m170 801c43 12 20 46 20 46-47 7-49-15-49-15z"/>
    <path d="m496 835c-30 20-40 39-40 39 8 34 62 31 62 31z"/>
   </g>
  </g>
  <path stroke-linejoin="round" style="enable-background:new" d="m479.69 863.76s-68-13-43-48c0 0-120 79-249 6-3 35-13 32-13 32-12 31-32 27-32 27 214 208 337-17 337-17z" stroke="#e6cba4" stroke-linecap="round" stroke-dasharray="1.6, 4.8" stroke-width="1.6" fill="none"/>
 </g>
 <path d="m943.63 5.0516c-52.11 103.09-112.24 148.76-224.85 72.114 25.51 113.8 15.38 166.43-117.37 170.95 134.47 93.288 94.913 115.48-50.038 244.27 135.89-31.674 209.38-62.753 216.11 127.34 95.526-72.267 139.62-76.528 195.16 40.76 58.045-104.06 86.234-131.92 199.15-63.098-17.049-122-31.676-172.82 104.13-178.78-91.243-87.222-95.955-107.42 3.4557-194.1-123.8-20.95-159.1-27.62-128.2-161.47-97.2 47.99-164.89 73.92-197.57-57.988z" fill="#f0f0f0"/>
</svg>
