<?xml version="1.0" encoding="UTF-8" standalone="no"?>
<!-- Created with Inkscape (http://www.inkscape.org/) -->
<svg id="svg2" xmlns:rdf="http://www.w3.org/1999/02/22-rdf-syntax-ns#" style="enable-background:new" xmlns="http://www.w3.org/2000/svg" xmlns:osb="http://www.openswatchbook.org/uri/2009/osb" height="960" width="1280" version="1.1" xmlns:cc="http://creativecommons.org/ns#" xmlns:xlink="http://www.w3.org/1999/xlink" viewBox="0 0 1280 960" xmlns:dc="http://purl.org/dc/elements/1.1/">
 <defs id="defs4">
  <linearGradient id="linearGradient6586">
   <stop id="stop6588" stop-color="#ffebcd" offset="0"/>
   <stop id="stop6590" stop-color="#ffebcd" stop-opacity="0" offset="1"/>
  </linearGradient>
  <linearGradient id="linearGradient6496" osb:paint="gradient">
   <stop id="stop6498" offset="0"/>
   <stop id="stop6500" stop-opacity="0" offset="1"/>
  </linearGradient>
  <linearGradient id="linearGradient6248">
   <stop id="stop6250" stop-color="#ffc96e" offset="0"/>
   <stop id="stop6252" stop-color="#ffc96e" stop-opacity="0" offset="1"/>
  </linearGradient>
  <linearGradient id="linearGradient6240">
   <stop id="stop6242" stop-color="#2b1305" offset="0"/>
   <stop id="stop6244" stop-color="#2b1305" stop-opacity="0" offset="1"/>
  </linearGradient>
  <radialGradient id="radialGradient6246" xlink:href="#linearGradient6240" gradientUnits="userSpaceOnUse" cy="379.66" cx="171.43" gradientTransform="matrix(14.213 .092407 -.093064 14.314 -2229.7 -5070.5)" r="27.677"/>
  <radialGradient id="radialGradient6254" xlink:href="#linearGradient6248" gradientUnits="userSpaceOnUse" cy="400" cx="171.15" gradientTransform="matrix(2.9564 -0.0338 0.0325 2.8427 -347.84 -731.3)" r="21.685"/>
  <filter id="filter6492" style="color-interpolation-filters:sRGB" height="1.1332" width="1.1217" y="-.066624" x="-.060839">
   <feGaussianBlur id="feGaussianBlur6494" stdDeviation="1.0994095"/>
  </filter>
  <radialGradient id="radialGradient6580" xlink:href="#linearGradient6496" gradientUnits="userSpaceOnUse" cy="379.66" cx="171.43" gradientTransform="matrix(1.9763 .022414 -.041719 3.6784 -151.52 -1020.7)" r="27.677"/>
  <radialGradient id="radialGradient6596" xlink:href="#linearGradient6586" gradientUnits="userSpaceOnUse" cy="399.29" cx="170.54" gradientTransform="matrix(2.2162 .0071956 -.0060986 1.8784 -204.98 -353.19)" r="13.214"/>
  <filter id="filter6616" style="color-interpolation-filters:sRGB" height="1.1104" width="1.1104" y="-0.0552" x="-0.0552">
   <feGaussianBlur id="feGaussianBlur6618" stdDeviation="0.60785715"/>
  </filter>
  <filter id="filter6657" style="color-interpolation-filters:sRGB" height="1.1696" width="1.215" y="-.084782" x="-.10750">
   <feGaussianBlur id="feGaussianBlur6659" stdDeviation="0.35336582"/>
  </filter>
  <radialGradient id="radialGradient6246-3" xlink:href="#linearGradient6240" gradientUnits="userSpaceOnUse" cy="379.66" cx="171.43" gradientTransform="matrix(14.213 .092407 -.093064 14.314 -2093.8 -5063.9)" r="27.677"/>
  <radialGradient id="radialGradient6580-9" xlink:href="#linearGradient6496" gradientUnits="userSpaceOnUse" cy="379.66" cx="171.43" gradientTransform="matrix(1.9763 .022414 -.041719 3.6784 -15.658 -1014.1)" r="27.677"/>
  <radialGradient id="radialGradient6254-5" xlink:href="#linearGradient6248" gradientUnits="userSpaceOnUse" cy="400" cx="171.15" gradientTransform="matrix(2.9564 -0.0338 0.0325 2.8427 -212.33 -725.04)" r="21.685"/>
  <filter id="filter6492-1" style="color-interpolation-filters:sRGB" height="1.1332" width="1.1217" y="-.066624" x="-.060839">
   <feGaussianBlur id="feGaussianBlur6494-8" stdDeviation="1.0994095"/>
  </filter>
  <filter id="filter6616-3" style="color-interpolation-filters:sRGB" height="1.1104" width="1.1104" y="-0.0552" x="-0.0552">
   <feGaussianBlur id="feGaussianBlur6618-6" stdDeviation="0.60785715"/>
  </filter>
  <filter id="filter6657-2" style="color-interpolation-filters:sRGB" height="1.1696" width="1.215" y="-.084782" x="-.10750">
   <feGaussianBlur id="feGaussianBlur6659-2" stdDeviation="0.35336582"/>
  </filter>
  <filter id="filter10966" style="color-interpolation-filters:sRGB">
   <feBlend id="feBlend10968" in2="BackgroundImage" mode="multiply"/>
  </filter>
  <radialGradient id="radialGradient11413" gradientUnits="userSpaceOnUse" cy="482.39" cx="234.55" gradientTransform="matrix(3.5615 -.031213 .058202 6.641 -631.33 -2737.5)" r="70.261">
   <stop id="stop11405" stop-color="#331c0f" offset="0"/>
   <stop id="stop11407" stop-color="#331c0f" stop-opacity="0" offset="1"/>
  </radialGradient>
  <radialGradient id="radialGradient11421" gradientUnits="userSpaceOnUse" cy="485.27" cx="389.23" gradientTransform="matrix(3.5163 .054267 -.11155 7.228 -927.72 -3067)" r="67.553">
   <stop id="stop11417" stop-color="#331c0f" offset="0"/>
   <stop id="stop11419" stop-color="#331c0f" stop-opacity="0" offset="1"/>
  </radialGradient>
 </defs>
 <metadata id="metadata7">
  <rdf:RDF>
   <cc:Work rdf:about="">
    <dc:format>image/svg+xml</dc:format>
    <dc:type rdf:resource="http://purl.org/dc/dcmitype/StillImage"/>
    <dc:title/>
   </cc:Work>
  </rdf:RDF>
 </metadata>
 <g id="layer4" display="none">
  <text id="text11516" style="word-spacing:0px;letter-spacing:0px;enable-background:new" xml:space="preserve" font-size="40px" line-height="125%" y="942.30151" x="482.58997" font-family="&apos;8514oem&apos;" display="inline" fill="#f0f0f0"><tspan id="tspan11518" y="942.30151" x="482.58997" font-family="&apos;Courier New&apos;" fill="#f0f0f0">Serval</tspan></text>
 </g>
 <g id="layer12" fill-rule="evenodd" transform="translate(0,-320)">
  <path id="path11352" style="enable-background:new" d="m483.54 772.51s31.165-114.85-29.189-242.3c-21.86-46.16-12.214-96.384-47.043-156.86 0 0-60.909 21.823-88.062 142.95-10.558 47.099-4.5744 113.44-5.0191 193.03-1.7606-67.489 5.4811-139.62-13.009-193.03-31.547-91.13-95.077-144.01-95.077-144.01-32.809 56.517-27.484 115.46-44.292 159.63-58.666 154.15-13.941 237.41-13.941 237.41 161.99 49.762 335.63 3.1763 335.63 3.1763z" fill="#f8d088"/>
  <path id="path11352-3" style="enable-background:new" d="m454.35 530.22c-21.86-46.16-12.214-96.384-47.043-156.86 0 0-60.909 21.823-88.062 142.95 0 0 84.125 65.295 135.11 13.915z" fill="url(#radialGradient11421)"/>
  <path id="path11352-8" style="enable-background:new" d="m301.22 516.31c-31.55-91.13-95.08-144.01-95.08-144.01-32.809 56.517-27.484 115.46-44.292 159.63 45.306 11.517 152.81 29.154 139.37-15.62z" fill="url(#radialGradient11413)"/>
  <path id="path11358" style="enable-background:new" d="m342.69 712.09s-13.476-154.23 59.893-325.67c22.227 44.455 22.728 97.445 41.063 136.08 60.832 128.18 34.553 251.73 34.553 251.73z" fill="#f0f0f0"/>
  <path id="path11360" style="enable-background:new" d="m280.56 711.34s23.209-170.7-71.872-322.68c-27.585 38.468-24.274 110.84-32.607 129.14-66.53 146.18-22.046 252.68-22.046 252.68z" fill="#f0f0f0"/>
  <path id="path11362" style="enable-background:new" d="m365.9 712.84c-11.979-52.407-4.492-130.27-4.492-130.27l16.471 47.915 11.979-80.856 4.492 86.845 13.476-106.31-5.9893 113.8 8.984-31.444 2.9947 35.936 28.449-53.904-13.476 53.904 22.46-7.4867-22.46 25.455 37.433-7.4867-28.449 25.455 26.952 7.4867-31.444 2.9947 34.439 31.444-38.931-14.973 32.941 32.941-53.904 4.492z" fill="#fff"/>
  <path id="path11364" style="enable-background:new" d="m267.08 720.33c8.984-64.385-8.984-140.75-8.984-140.75l-5.9893 67.38c-10.49-94.34-7.49-106.31-7.49-106.31l-14.973 86.845-7.4867-44.92-7.4867 44.92-22.46-64.385 10.481 77.861-26.952-47.915 5.9893 53.904-32.941-14.973 26.952 26.952-10.481-1.4973 10.481 26.952-26.952-4.492 29.947 20.963-23.957 10.481h23.957c-1.7397 17.731-0.0868 29.91 22.46 34.439z" fill="#fff"/>
 </g>
 <g id="layer9" fill-rule="evenodd" transform="translate(0,320)">
  <path id="path11006" style="enable-background:new" d="m373.03 493.34s-10.172 9.3345 10.335 36.77c0 0 27.849-11.314 30.678-28.991 0 0 12.021 23.335 18.385 25.456 0 0-7.0711-35.355 10.607-68.589 0 0 7.0711 16.263 2.1213 59.397 0 0 36.062-5.6568 45.962-66.468 0 0 36.062 47.376 84.853 45.962 0 0 24.749-111.02-28.991-195.87 0 0 15.196 4.9202 38.182 87.128 4.497 16.083-3.523 61.558 21.215 83.284 0 0 9.5206-34.112 5.4574-83.485-7.47-90.85-54.63-238.53-217.23-308.6-86.23-36.061-175.01 6.702-175.01 6.702-249.27 118.14-181.02 386.08-181.02 386.08 33.234 54.447 54.447 54.447 54.447 54.447 44.912-80.853 17.506-170.21 17.506-170.21 15.556 61.518 27.749 153.94 27.749 153.94 41.012-13.435 47.376-37.477 47.376-37.477-7.0711 29.698 14.142 51.619 14.142 51.619 33.941-12.728 38.891-31.113 38.891-31.113 3.5355 21.92 33.941 9.1924 33.941 9.1924" fill="#e5be79"/>
  <path id="path11512" style="enable-background:new" d="m166.56 315.15c-45.255 67.175-28.296 195.15-28.296 195.15 34.648-9.1924 47.22-35.719 47.22-35.719-7.0711 36.062 14.431 49.994 14.431 49.994 34.648-13.081 38.77-31.238 38.77-31.238 5.922 26.87 42.603 8.2201 36.77 5.6568z" fill="#cf7d29"/>
  <path id="path11514" style="enable-background:new" d="m370.91 492.98s-5.6578 14.448 12.462 37.164c0 0 30.318-12.929 30.672-29.121 0 0 9.5755 21.536 18.473 25.721 0 0-6.6461-36.8 10.678-68.266 0 0 6.2863 26.267 1.6901 59.147 0 0 38.455-4.1391 46.233-67.072-16.263-45.255-3.8891-94.399-3.8891-94.399l-62.423-64.354-43.996 91.931z" fill="#cf7d29"/>
  <g fill="#d5913d">
   <path id="path11503" style="enable-background:new" d="m492.56 453.87s-22-48-4-105.5c26.559 87.654 49.5 141 49.5 141s-27.5-12-45.5-35.5z"/>
   <path id="path11506" style="enable-background:new" d="m65.264 508.19s-11.844-127.28 18.562-289.91c-68.589 155.56-36.094 267.93-36.094 267.93 7.0454 12.026 17.532 21.979 17.532 21.979z"/>
   <path id="path11508" style="enable-background:new" d="m546.98 301.01c43.5 85.75 28.999 195.85 28.999 195.85s29.405-115.8-28.999-195.85z"/>
   <path id="path11510" style="enable-background:new" d="m600.62 465.25s-8.7827-24.082-4.703-73.945c16.772 36.717 13.623 64.416 13.623 64.416-1.0788 7.7524-3.1504 15.69-3.1504 15.69-3.8464-2.6444-5.7691-6.1605-5.7691-6.1605z"/>
  </g>
 </g>
 <g id="layer15" transform="translate(0,-320)">
  <g id="g11577" fill-rule="evenodd" style="enable-background:new" transform="translate(-1.9714 -24.281)">
   <path id="path11541-8" style="enable-background:new" d="m428.48 1100.9c5.003-4.921 33.211-23.895 38.242-27.422 41.297-28.944 33.778-62.079 33.778-62.079-2.7969-41.254-41.953-9.0899-41.953-9.0899l-20.278 32.164z" fill="#fceee0"/>
   <g fill="#efcdaa">
    <path id="path11543-0" style="enable-background:new" d="m487.22 1012.8c8.3907 21.676-18.18 31.465-18.18 31.465-9.0899-9.7892-3.4961-27.969-3.4961-27.969 15.383-20.278 21.676-3.4961 21.676-3.4961z"/>
    <path id="path11547-2" style="enable-background:new" d="m466.9 1066.9s44.07-31.671 24.633-67.225c0 0-5.4846-13.21-29.178 9.1824 22.477-25.392 30.388-11.301 30.388-11.301 21.013 38.071-25.843 69.344-25.843 69.344z"/>
    <path id="path11551-9" style="enable-background:new" d="m450.16 1052.3c28.319-23.074 4.8946 17.131 4.8946 17.131-4.896-8.6673-4.8946-17.131-4.8946-17.131z"/>
   </g>
  </g>
 </g>
 <g id="layer20" fill-rule="evenodd">
  <path id="path7351" d="m343.54 859.51s2.1213-4.5962-1.0607-37.83l-56.215 1.4142c-3.182 22.627-1.0607 37.83-1.0607 37.83z" fill="#fceee0"/>
  <path id="path7353" d="m285.8 826.75c21.264 9.8386 57.039-1.19 57.039-1.19s0.97358 6.0305-3.3051 7.7456c-14.258 6.5883-40.181 7.593-51.977 0.1532-2.5513-1.627-1.7569-6.7088-1.7569-6.7088z" fill="#f4dac0"/>
 </g>
 <g id="layer21">
  <path id="path7356" d="m500.63 970.61s-0.27209-112.88-65.054-102.35c0 0-119.87-27.698-266.24 3.4142-37.77-0.3934-36.828 102.88-36.828 102.88z" fill-rule="evenodd" fill="#fceee0"/>
 </g>
 <g id="layer22">
  <g id="g7420" transform="matrix(.96256 0 0 1 11.389 -.015215)">
   <path id="path7367" d="m454.67 971.31s-2.7825-46.095 0.0459-104.08l-52.372-10.474s-84.146 59.397-171.12-2.1213l-58.69 12.021c15.556 60.104 7.0711 111.72 7.0711 111.72z" fill-rule="evenodd" fill="#f0f0f0"/>
   <g stroke="#361f12" fill="none">
    <path id="path7403" d="m172.45 866.57c13.184 36.14 7.2478 111.72 7.2478 111.72" stroke-width="2.0385"/>
    <path id="path7405" d="m178.97 865.6c10.671 52.795 6.0703 113.31 6.0703 113.31" stroke-width="2.0385"/>
    <path id="path7407" d="m454.41 866.85c-3.5797 62.756 0.45024 104.35 0.45024 104.35" stroke-width="2.0385"/>
    <path id="path7412" d="m450.24 865.01c-3.8238 55.869-0.65854 108.23-0.65854 108.23" stroke-width="2.0385"/>
   </g>
  </g>
  <path id="path7377" stroke-linejoin="round" style="enable-background:new" d="m313.24 869.41c-1.55 57.51-0.91 117.09-0.91 117.09l6.4185-0.0858c-1.72-63.18-0.41-118.41-0.41-118.41z" stroke="#361f12" stroke-width="2" fill="none"/>
 </g>
 <g id="layer1" transform="translate(0 -92.362)">
  <path id="path10851" style="enable-background:new" d="m153.45 707.82c21.423 69.992 24.994 119.15 24.994 119.15-4.9987 48.916 69.982 77.246 69.982 77.246 21.203 8.552 40.064 18.669 59.975 18.555 34.408-0.19779 64.858-16.055 64.858-16.055s75.56-27.497 72.704-79.746c0 0 3.5705-49.161 24.994-119.15 0 0-10.075-103.08-54.4-146.15-52.366-50.873-139.78-60.073-206.05 0-36.088 32.71-53.435 75.43-57.055 146.15z" fill-rule="evenodd" fill="#fceee0"/>
 </g>
 <g id="layer2" transform="translate(0,320)">
  <g id="g4450" transform="translate(-2.5254 -.55517)">
   <g id="g4429" transform="translate(3.5714)"></g>
  </g>
  <g id="g6670" style="enable-background:new" transform="translate(76.266 -14.741)">
   <g id="g10621">
    <g fill="#2a1b0e">
     <path id="path4441" d="m152.45 745.34c0-0.12595 0.33056-1.4016 0.73458-2.8348 0.81236-2.8817 1.7577-5.139 2.1522-5.139 0.45518 0 1.7561 4.7912 1.7561 6.4676 0 0.64089-0.19158 0.75275-2.0902 1.2204-2.3687 0.58343-2.5526 0.60403-2.5526 0.28583z" transform="translate(-2.5254 -412.92)"/>
     <path id="path4443" d="m171.02 740.51c0-0.63749 2.4425-6.2644 3.3456-7.7074 1.936-3.0934 2.7858-3.2019 4.1372-0.5284 0.57493 1.1375 2.1601 6.6624 2.1601 7.5288 0 0.10598-1.7277 0.27049-3.8393 0.36557-2.1116 0.0951-4.2812 0.23495-4.8214 0.31082-0.54018 0.0759-0.98214 0.0896-0.98214 0.0306z" transform="translate(-2.5254 -412.92)"/>
     <path id="path4445" d="m195.75 745.04c-0.94448-0.66514-1.763-1.2755-1.819-1.3564-0.16803-0.24269 2.83-2.9015 3.9913-3.5398 0.59409-0.32649 1.1674-0.44629 1.274-0.26622 0.27366 0.46223-1.0886 6.5789-1.4398 6.4653-0.15907-0.0514-1.062-0.63777-2.0064-1.3029z" transform="translate(-2.5254 -412.92)"/>
    </g>
    <path id="path4385" d="m159.3 424.98c-11.13-2.0356-19.302-5.6416-24.448-10.788-3.6655-3.6659-5.1225-6.1072-6.2666-10.5-1.0503-4.0325-0.94808-6.6839 0.4861-12.604 6.4979-26.82 18.099-45.141 31.705-50.07 3.2357-1.1722 11.051-1.3863 15.197-0.41648 6.3143 1.4769 15.696 6.6405 21.399 11.778l2.1149 1.9051 0.65357 8.8388c0.35945 4.8614 0.65779 15.203 0.66296 22.981 0.0136 20.447-0.54548 22.657-7.1345 28.201-11.222 9.4428-22.296 12.882-34.37 10.673z" transform="translate(1.046 -.55517)" fill="#fffafa"/>
    <path id="path4480" d="m164.24 423.3c-4.4644-1.2123-8.1667-3.4233-12.232-7.305-3.0699-2.9313-5.5704-8.9837-7.1024-17.191-0.86415-4.6294-0.85328-17.433 0.0196-23.036 0.73789-4.7369 1.9915-10.253 3.3478-14.732 0.95256-3.1454 1.5481-3.967 1.5481-2.1357 0 1.5137 1.3787 6.1519 2.1511 7.2366 2.4651 3.4618 6.3223 1.6986 14.05-6.4229 2.6013-2.7338 2.7939-3.0402 2.6129-4.1558-0.39182-2.4145-3.1372-4.9639-8.9096-8.2738l-3.053-1.7505 1.8268-1.5793c3.0324-2.6216 8.3747-5.9567 11.454-7.1505 3.6802-1.4267 7.9907-1.7818 11.002-0.90627 2.7183 0.79023 6.0193 3.0787 7.9481 5.51 1.3204 1.6644 1.9228 2.9796 3.3842 7.389 8.1994 24.738 8.4212 46.336 0.63082 61.436-2.6887 5.2113-9.219 10.281-16.324 12.674-3.3627 1.1324-8.975 1.3109-12.355 0.39308z" stroke="url(#radialGradient6580)" fill="url(#radialGradient6246)"/>
    <path id="path4553" d="m165.4 419.51c-3.2324-0.71315-6.2313-2.263-7.7674-4.0142-3.3697-3.8414-7.0433-18.547-7.7679-31.094-0.0802-1.389-0.20394-2.9026-0.27496-3.3638l-0.12912-0.83837 21.586 0.0808c11.872 0.0444 21.652 0.14703 21.733 0.22804 0.21522 0.21541-0.28892 7.2303-0.75169 10.459-1.0194 7.1129-3.3044 15.153-5.7051 20.073-2.1436 4.3937-5.1532 6.8822-9.9372 8.2167-2.1183 0.59089-8.7593 0.74338-10.985 0.25224z" filter="url(#filter6492)" fill="url(#radialGradient6254)"/>
    <circle id="path6582" cx="170.54" transform="matrix(.77626 0 0 .77626 38.156 89.057)" filter="url(#filter6616)" cy="398.04" r="13.214" fill="url(#radialGradient6596)"/>
    <path id="path6642" d="m166.76 377.86h7.8889v10.003h-7.8889z" fill-rule="evenodd" filter="url(#filter6657)" fill="#301709"/>
    <path id="path4367" d="m125.65 815.31c-0.71702-2.8568-0.93466-14.104-0.37958-19.615 2.785-27.654 16.783-50.371 34.89-56.624 4.421-1.5267 12.968-1.884 17.844-0.74595 6.6327 1.5483 13.083 4.788 19.883 9.9871 2.9422 2.2494 2.9352 2.2291 4.4387 12.785 0.43523 3.0557 0.89362 6.1813 1.0187 6.9457 0.20914 1.2786-0.13413 1.089-4.2872-2.3676-7.8289-6.516-13.886-10.117-21.021-12.499-4.9929-1.6663-13.281-1.6355-17.624 0.0656-15.287 5.988-26.733 25.794-33.263 57.559-0.85313 4.1498-1.2728 5.4116-1.4994 4.5086z" transform="translate(1.046 -412.92)" fill="#2a1b0e"/>
   </g>
  </g>
  <g id="g10765" style="enable-background:new" transform="translate(69.7 -21.802)">
   <g fill="#2a1b0e">
    <path id="path4441-6" d="m327.29 339.49c0-0.12595-0.33056-1.4016-0.73458-2.8348-0.81236-2.8817-1.7577-5.139-2.1522-5.139-0.45518 0-1.7561 4.7912-1.7561 6.4676 0 0.64089 0.19158 0.75275 2.0902 1.2204 2.3687 0.58343 2.5526 0.60403 2.5526 0.28583z"/>
    <path id="path4443-3" d="m308.72 334.65c0-0.63749-2.4425-6.2644-3.3456-7.7074-1.936-3.0934-2.7858-3.2019-4.1372-0.5284-0.57493 1.1375-2.1601 6.6624-2.1601 7.5288 0 0.10598 1.7277 0.27049 3.8393 0.36557 2.1116 0.0951 4.2812 0.23495 4.8214 0.31082 0.54018 0.0759 0.98214 0.0896 0.98214 0.0306z"/>
    <path id="path4445-0" d="m284 339.18c0.94448-0.66514 1.763-1.2755 1.819-1.3564 0.16803-0.24269-2.83-2.9015-3.9913-3.5398-0.59409-0.32649-1.1674-0.44629-1.274-0.26622-0.27366 0.46223 1.0886 6.5789 1.4398 6.4653 0.15907-0.0514 1.062-0.63777 2.0064-1.3029z"/>
   </g>
   <path id="path4385-8" d="m316.87 431.49c11.13-2.0356 19.302-5.6416 24.448-10.788 3.6655-3.6659 5.1225-6.1072 6.2666-10.5 1.0503-4.0325 0.94808-6.6839-0.4861-12.604-6.4979-26.82-18.099-45.141-31.705-50.07-3.2357-1.1722-11.051-1.3863-15.197-0.41648-6.3143 1.4769-15.696 6.6405-21.399 11.778l-2.1149 1.9051-0.65357 8.8388c-0.35945 4.8614-0.65779 15.203-0.66296 22.981-0.0136 20.447 0.54548 22.657 7.1345 28.201 11.222 9.4428 22.296 12.882 34.37 10.673z" fill="#fffafa"/>
   <path id="path4480-5" d="m300.1 429.92c-4.4644-1.2123-8.1667-3.4233-12.232-7.305-3.0699-2.9313-5.5704-8.9837-7.1024-17.191-0.86415-4.6294-0.85328-17.433 0.0196-23.036 0.73789-4.7369 1.9915-10.253 3.3478-14.732 0.95256-3.1454 1.5481-3.967 1.5481-2.1357 0 1.5137 1.3787 6.1519 2.1511 7.2366 2.4651 3.4618 6.3223 1.6986 14.05-6.4229 2.6013-2.7338 2.7939-3.0402 2.6129-4.1558-0.39182-2.4145-3.1372-4.9639-8.9096-8.2738l-3.053-1.7505 1.8268-1.5793c3.0324-2.6216 8.3747-5.9567 11.454-7.1505 3.6802-1.4267 7.9907-1.7818 11.002-0.90627 2.7183 0.79023 6.0193 3.0787 7.9481 5.51 1.3204 1.6644 1.9228 2.9796 3.3842 7.389 8.1994 24.738 8.4212 46.336 0.63082 61.436-2.6887 5.2113-9.219 10.281-16.324 12.674-3.3627 1.1324-8.975 1.3109-12.355 0.39308z" stroke="url(#radialGradient6580-9)" fill="url(#radialGradient6246-3)"/>
   <path id="path4553-4" d="m300.91 425.77c-3.2324-0.71315-6.2313-2.263-7.7674-4.0142-3.3697-3.8414-7.0433-18.547-7.7679-31.094-0.0802-1.389-0.20394-2.9026-0.27496-3.3638l-0.12912-0.83837 21.586 0.0808c11.872 0.0444 21.652 0.14703 21.733 0.22804 0.21522 0.21541-0.28892 7.2303-0.75169 10.459-1.0194 7.1129-3.3044 15.153-5.7051 20.073-2.1436 4.3937-5.1532 6.8822-9.9372 8.2167-2.1183 0.59089-8.7593 0.74338-10.985 0.25224z" filter="url(#filter6492-1)" fill="url(#radialGradient6254-5)"/>
   <circle id="path6582-3" transform="matrix(.77626 0 0 .77626 173.67 95.317)" filter="url(#filter6616-3)" cy="398.04" cx="170.54" r="13.214" fill="url(#radialGradient6596)"/>
   <path id="path6642-9" d="m302.27 384.12h7.8889v10.003h-7.8889z" fill-rule="evenodd" filter="url(#filter6657-2)" fill="#301709"/>
   <path id="path4367-9" d="m350.53 409.45c0.71702-2.8568 0.93466-14.104 0.37958-19.615-2.785-27.654-16.783-50.371-34.89-56.624-4.421-1.5267-12.968-1.884-17.844-0.74595-6.6327 1.5483-13.083 4.788-19.883 9.9871-2.9422 2.2494-2.9352 2.2291-4.4387 12.785-0.43523 3.0557-0.89362 6.1813-1.0187 6.9457-0.20914 1.2786 0.13413 1.089 4.2872-2.3676 7.8289-6.516 13.886-10.117 21.021-12.499 4.9929-1.6663 13.281-1.6355 17.624 0.0656 15.287 5.988 26.733 25.794 33.263 57.559 0.85313 4.1498 1.2728 5.4116 1.4994 4.5086z" fill="#2a1b0e"/>
  </g>
 </g>
 <g id="layer7" transform="translate(0,320)" display="none">
  <path id="path11520" style="enable-background:new" d="m289.12 778.49c7 9 27.166-0.0819 27.166-0.0819 10.666 8.4181 27.166-0.0819 27.166-0.0819" display="inline" transform="translate(0,-320)" stroke="#331b0e" stroke-linecap="round" stroke-width="2" fill="none"/>
 </g>
 <g id="layer18">
  <path id="path7335" style="enable-background:new" d="m285.97 780.39c36.285 1.8451 53.388-1.0468 53.388-1.0468s-23.03 39.256-53.388 1.0468z" fill-rule="evenodd" fill="#e9967a"/>
 </g>
 <g id="layer10" opacity="0.59" transform="translate(0,320)" filter="url(#filter10966)">
  <path id="path10964" opacity="0.59" style="enable-background:new" d="m155.61 270.12c145.97-155.08 312.8-20.96 312.8-20.96-54.17-139.08-284.56-163.97-312.8 20.96z" fill-rule="evenodd" fill-opacity=".53304" filter="url(#filter10966)" fill="#d5913d"/>
 </g>
 <g id="layer8" transform="translate(0,320)">
  <g id="g11604" style="enable-background:new" fill-rule="evenodd" transform="translate(-2.441 -23.627)">
   <path id="path10889" d="m97.279 250.32c-47.143 96.43 60.711 184.29 60.711 184.29-18.57-88.58 35.18-198.93 35.18-198.93l13.571-42.143s-32.321 72.5 7.6786 117.5c0 0-2.8571-85 22.143-132.14-19.286 47.857 2.8571 99.286 2.8571 99.286 8.2295 29.006 39.812 51.617 48.937 64.151 13.766 16.401 15.366 19.464 21.777 30.135 43.571-28.571 57.143-113.57 57.143-113.57 20.714-32.857 5-77.857 5-77.857 52.143 45.714 42.143 121.43 42.143 121.43 33.571-63.571 5.7143-114.29 5.7143-114.29 42.293 107.49 60.316 118.09 35.714 210 0 0 100-25.714 74.286-140.71 0 0-61.581-169.08-217.86-165.36-160 6.7857-215 158.21-215 158.21z" fill="#f8d088"/>
   <g fill="#d5913d">
    <path id="path10901" d="m342.96 332.97s-101.82-61.851-112.77-130.79c-10.171 57.255 13.391 94.512 37.619 118.38 36.777 36.234 42.737 52.236 41.909 52.651 21.733-15.173 33.238-40.247 33.238-40.247z"/>
    <path id="path10918" d="m345 593.36c-15.5 27 22.28 77.901 22.28 77.901 7-29-22.28-77.901-22.28-77.901z" transform="translate(0 -412.36)"/>
    <path id="path10921" d="m206.74 193.55c-57.806 29.875-73.664 94.452-73.664 94.452-11.314-19.799 2.1213-36.77 2.1213-36.77-55.154 79.903 14.787 176.2 14.787 176.2l2.6478 2.475 5.4238 4.8057c-1.85-106.87 18.88-145.99 48.69-241.16z"/>
    <path id="path10923" d="m206.74 605.91c-16.554 22.793-11.348 76.48-11.348 76.48 2.9515 23.966 19.03 41.016 19.03 41.016s-19.03-41.016-7.6824-117.5z" transform="translate(0 -412.36)"/>
    <path id="path10926" d="m481.75 386.66s50.142-79.88 25.108-131.3c0 0 3.6716 46.284-11.531 48.052 0 0 19.445-81.671-76.368-117.73 17.537 57.743 38.603 81.317 44.932 118.64 7.6018 44.821-8.1887 93.932-8.1887 93.932s9.8798-2.8692 12.31-4.0624c3.5797-1.5026 13.736-7.5282 13.736-7.5282z"/>
    <path id="path10928" d="m372.27 181.03c3.424 2.767 1.8738 2.748 7.4969 7.3392 30.241 24.691 34.659 114.07 34.659 114.07s26.6-70.091-42.156-121.41z"/>
   </g>
  </g>
  <g id="g7344" fill="#f0f0f0">
   <ellipse id="path7338" rx="298.4" ry="261.63" cy="-6.2956" cx="934.8"/>
   <path id="path7342" d="m734 172-138 48 104-118z" fill-rule="evenodd"/>
  </g>
 </g>
 <g id="layer16" transform="translate(0,-320)">
  <g id="g11583" fill-rule="evenodd" style="enable-background:new" transform="translate(-2.0914 -24.372)">
   <path id="path11541" d="m199.98 1101c-5.003-4.921-33.211-23.895-38.242-27.422-41.297-28.944-33.778-62.079-33.778-62.079 2.7969-41.254 41.953-9.0899 41.953-9.0899l20.278 32.164z" fill="#fceee0"/>
   <g fill="#efcdaa">
    <path id="path11543" d="m141.24 1012.9c-8.3907 21.676 18.18 31.465 18.18 31.465 9.0899-9.7892 3.4961-27.969 3.4961-27.969-15.383-20.278-21.676-3.4961-21.676-3.4961z"/>
    <path id="path11547" d="m161.56 1067s-44.07-31.671-24.633-67.225c0 0 5.4846-13.21 29.178 9.1824-22.477-25.392-30.388-11.301-30.388-11.301-21.013 38.071 25.843 69.344 25.843 69.344z"/>
    <path id="path11551" d="m178.3 1052.4c-28.319-23.074-4.8946 17.131-4.8946 17.131 6.3793-10.027 4.8946-17.131 4.8946-17.131z"/>
   </g>
  </g>
 </g>
 <g id="layer6" fill-rule="evenodd" transform="translate(0,320)" fill="#331b0e">
  <path id="path10777-8" style="enable-background:new" d="m284.78 279.48c-39.896-25.679-75.714-12.857-75.714-12.857 38.88-6.5879 75.714 12.857 75.714 12.857z"/>
  <path id="path10777-8-7" style="enable-background:new" d="m340.15 279.48c39.896-25.679 75.714-12.857 75.714-12.857-38.88-6.5879-75.714 12.857-75.714 12.857z"/>
 </g>
 <g id="layer11" transform="translate(0,320)">
  <g id="g11000" style="enable-background:new" fill-rule="evenodd" transform="matrix(.88956 0 0 .87310 42.207 -8.6197)" fill="#331c0f">
   <path id="path10971" d="m231.84 179.56c-5-54 35-78 35-78 6 47-35 78-35 78z"/>
   <path id="path10971-0" d="m371.83 179.56c5-54-35-78-35-78-6 47 35 78 35 78z"/>
   <path id="path10971-3" d="m301.84 179.55c5-54-35-78-35-78-6 47 35 78 35 78z"/>
   <path id="path10971-08" d="m301.83 179.55c-5-54 35-78 35-78 6 47-35 78-35 78z"/>
  </g>
 </g>
 <g id="layer3">
  <g id="g4628" transform="translate(-.89995 -6.7647)">
   <g fill-rule="evenodd">
    <path id="path4275" style="enable-background:new" d="m204.77 946.97s-32.486-7.9683-30.034-50.874c-35.551-150.78 141.59-33.712 141.59-33.712 178.37-114.01 128.72 25.131 128.72 25.131 0.00001 33.099-8.5812 59.456-8.5812 59.456-17.19 16.205-87.581-22.702-121.36-50.262-46.255 22.302-86.541 54.024-110.33 50.262z" fill="#f8d088"/>
    <path id="path4275-8" style="enable-background:new" d="m204.77 946.97s-32.486-7.9683-30.034-50.874c66.811-39.229 140.98-14.711 140.98-14.711 88.264-5.5166 129.33 6.1295 129.33 6.1295 0.00001 33.099-8.5812 59.456-8.5812 59.456-5.5228 25.751-87.581-22.702-121.36-50.262-46.255 22.302-86.541 54.024-110.33 50.262z" fill="#fffaf0"/>
    <path id="path4306" stroke-linejoin="round" style="enable-background:new" d="m294.29 846.72c19.001-6.7424 42.293-0.61295 42.293-0.61295-4.9036 30.647-2.4518 64.972-2.4518 64.972-18.388 8.5812-41.067 1.2259-41.067 1.2259 1.8388-36.164 1.2259-65.585 1.2259-65.585z" stroke="#331b0e" stroke-dasharray="1, 3" fill="#f8d088"/>
    <path id="path4306-2" style="enable-background:new" d="m333.53 893.25c0.0893 10.681 0.59969 17.827 0.59969 17.827-18.388 8.5812-41.067 1.2259-41.067 1.2259 0.32845-6.4596 0.57868-12.704 0.76815-18.604 8.2459-5.6196 31.843-4.8757 39.7-0.44859z" fill="#fffaf0"/>
   </g>
   <path id="path4306-9" stroke-linejoin="round" style="enable-background:new" d="m294.29 846.72c19.001-6.7424 42.293-0.61295 42.293-0.61295-4.9036 30.647-2.4518 64.972-2.4518 64.972-18.388 8.5812-41.067 1.2259-41.067 1.2259 1.8388-36.164 1.2259-65.585 1.2259-65.585z" stroke="#331b0e" stroke-dasharray="1, 3" fill="none"/>
   <g fill="#361f12">
    <ellipse id="path4341" rx="13.788" transform="matrix(.99916 .040981 -.037775 .99929 0 0)" ry="10.43" cy="829.52" cx="226.33"/>
    <ellipse id="path4341-8" style="enable-background:new" rx="9.1926" transform="matrix(.99890 .046896 -.033008 .99946 0 0)" ry="7.9561" cy="831.1" cx="255.4"/>
    <ellipse id="path4341-6" style="enable-background:new" rx="7.7778" transform="matrix(.99885 .048044 -.032219 .99948 0 0)" ry="6.8962" cy="842.98" cx="273.9"/>
    <ellipse id="path4341-6-4" style="enable-background:new" rx="3.8866" transform="matrix(.99866 .051825 -.029864 .99955 0 0)" ry="3.717" cy="846.97" cx="298.64"/>
    <ellipse id="path4341-1" style="enable-background:new" rx="15.557" transform="matrix(.99915 .041243 -.037535 .99930 0 0)" ry="11.843" cy="824.99" cx="458.8"/>
    <ellipse id="path4341-8-1" style="enable-background:new" rx="8.4839" transform="matrix(.99903 .044045 -.035146 .99938 0 0)" ry="6.8969" cy="832.67" cx="422.12"/>
    <ellipse id="path4341-6-5" style="enable-background:new" rx="6.717" transform="matrix(.99875 .049932 -.030998 .99952 0 0)" ry="6.1895" cy="835.59" cx="389.49"/>
    <ellipse id="path4341-6-4-8" style="enable-background:new" rx="4.3868" transform="matrix(.99872 .050543 -.030623 .99953 0 0)" ry="4.0917" cy="851.52" cx="370"/>
    <ellipse id="path4341-6-1" style="enable-background:new" rx="5.3013" transform="matrix(.99881 .048825 -.031702 .99950 0 0)" ry="4.7768" cy="863.79" cx="212.55"/>
    <ellipse id="path4341-6-1-8" style="enable-background:new" rx="6.0092" transform="matrix(.99878 .049444 -.031305 .99951 0 0)" ry="5.4832" cy="857.13" cx="244.21"/>
    <ellipse id="path4341-6-5-5" style="enable-background:new" rx="6.717" transform="matrix(.99875 .049932 -.030998 .99952 0 0)" ry="6.1895" cy="850.27" cx="435.61"/>
    <ellipse id="path4341-6-4-8-7" style="enable-background:new" rx="5.0956" transform="matrix(.99850 .054780 -.028250 .99960 0 0)" ry="5.1509" cy="848.94" cx="400.77"/>
    <ellipse id="path4341-8-9" style="enable-background:new" rx="7.7778" transform="matrix(.99885 .048044 -.032219 .99948 0 0)" ry="6.8962" cy="915.84" cx="229.88"/>
    <ellipse id="path4341-8-9-4" style="enable-background:new" rx="7.0691" transform="matrix(0.999 .044738 -.034602 .99940 0 0)" ry="5.837" cy="886.94" cx="277.75"/>
    <ellipse id="path4341-8-9-3" style="enable-background:new" rx="9.1926" transform="matrix(.99890 .046896 -.033008 .99946 0 0)" ry="7.9561" cy="908.1" cx="446.24"/>
    <ellipse id="path4341-8-9-3-0" style="enable-background:new" rx="6.3613" transform="matrix(.99904 .043698 -.035426 .99937 0 0)" ry="5.1307" cy="890.37" cx="392.54"/>
    <ellipse id="path4341-6-2" style="enable-background:new" rx="10.959" transform="matrix(.99916 .041084 -.037681 .99929 0 0)" ry="8.3107" cy="848.02" cx="347.97"/>
    <ellipse id="path4341-6-17" style="enable-background:new" rx="7.42" transform="matrix(.99939 .034884 -.044376 .99901 0 0)" ry="4.7791" cy="871.59" cx="349.66"/>
    <ellipse id="path4341-6-4-6" style="enable-background:new" rx="6.3597" transform="matrix(.99929 .037690 -.041074 .99916 0 0)" ry="4.4251" cy="886.74" cx="350.27"/>
   </g>
  </g>
 </g>
</svg>
